<svg xmlns="http://www.w3.org/2000/svg" enable-background="new 0 0 512 512" viewBox="0 0 512 512"><path fill="#8bdec5" d="M70 338.357h72.444c-5.299-6.773-9.557-14.099-12.76-21.77h-28.645c-5.877 0-10.641-4.764-10.641-10.641v-20.133h32.134c0-.001 0-.002 0-.002h-32.13V66.57H85c-19.299 0-35 15.716-35 35.034v236.753H70zM421.599 285.81h-109.83c0 .001 0 .002 0 .002h109.833v20.133c0 5.877-4.764 10.641-10.641 10.641H304.617c-3.203 7.672-7.46 14.998-12.76 21.77H442h20V101.604c0-19.318-15.701-35.034-35-35.034h-5.401V285.81z"/><path fill="#988fc4" d="M493.287 348.226c-3.472-6.271-9.046-9.868-15.295-9.868H462h-20H291.857c-2.342 2.994-4.864 5.892-7.616 8.647-17.919 17.942-41.749 27.825-67.091 27.825-.002 0 .001 0 0 0-21.978 0-42.811-7.436-59.644-21.111l-37.25 37.3 8.554 8.565c3.898 3.904 3.898 10.229 0 14.133l-5.073 5.08h325.856c4.825 0 6.63 0 41.88-37.526.443-.473.841-.988 1.186-1.538C498.956 369.68 497.742 356.272 493.287 348.226zM84.65 369.536c1.875-1.878 4.421-2.934 7.076-2.934 2.655 0 5.2 1.056 7.076 2.934l7.321 7.332 37.254-37.303c-.321-.397-.619-.806-.933-1.207H70 50 34.008c-6.249 0-11.824 3.597-15.295 9.868-4.455 8.048-5.668 21.455.631 31.509.344.55.741 1.064 1.186 1.537 11.959 12.732 20.061 21.135 25.745 26.693L84.65 369.536z"/><path fill="#ebe287" d="M90.398 285.813v20.133c0 5.877 4.764 10.641 10.641 10.641h28.645c-4.116-9.857-6.497-20.269-7.152-30.774H90.398zM410.961 316.587c5.877 0 10.641-4.764 10.641-10.641v-20.133H311.769c-.655 10.505-3.037 20.917-7.152 30.774H410.961z"/><path fill="#f5f5fc" d="M256,193.13c10.388,4.671,19.948,11.244,28.241,19.549c2.203,2.206,4.265,4.499,6.205,6.859
		c1.8-1.745,4.25-2.823,6.954-2.823h82.802c5.522,0,10,4.477,10,10s-4.478,10-10,10h-78.536
		c7.783,15.318,11.148,32.316,10.103,49.096h109.83V66.57V47.692c0-4.437-3.82-8.023-8.556-8.023h-62.437v49.1h29.596
		c5.522,0,10,4.477,10,10s-4.478,10-10,10h-29.978c-1.279,3.238-5.584,4.576-8.478,1.998l-2.243-1.998h-31l-2.243,1.998
		c-2.894,2.578-7.199,1.24-8.478-1.998H297.4c-5.522,0-10-4.477-10-10c0-5.523,4.477-10,10-10v-49.1h-5.56
		c-18.268,0-33.334,11.733-35.549,26.902c-0.185,1.266-0.291,2.553-0.291,3.862V193.13z M380.202,194.066H297.4
		c-5.522,0-10-4.477-10-10s4.478-10,10-10h82.802c5.522,0,10,4.477,10,10S385.725,194.066,380.202,194.066z M297.4,131.417h82.802
		c5.522,0,10,4.477,10,10s-4.478,10-10,10H297.4c-5.522,0-10-4.477-10-10S291.878,131.417,297.4,131.417z"/><path fill="#ececed" d="M90.401,285.81h32.13c-1.046-16.78,2.32-33.777,10.103-49.096h-0.837c-5.523,0-10-4.477-10-10s4.477-10,10-10
		h14.477c1.219-1.371,2.473-2.722,3.785-4.036c7.753-7.764,16.613-14.015,26.222-18.613h-44.485c-5.523,0-10-4.477-10-10
		s4.477-10,10-10H214.6c5.523,0,10,4.477,10,10c0,0.362-0.022,0.719-0.059,1.072c10.987,0.842,21.596,3.558,31.459,7.992V70.432
		c0-1.309-0.106-2.596-0.291-3.862c-2.214-15.169-17.281-26.902-35.549-26.902H98.957c-4.735,0-8.556,3.586-8.556,8.023V66.57
		V285.81z M214.6,151.417h-82.802c-5.523,0-10-4.477-10-10s4.477-10,10-10H214.6c5.523,0,10,4.477,10,10
		S220.123,151.417,214.6,151.417z M214.6,108.768h-82.802c-5.523,0-10-4.477-10-10s4.477-10,10-10H214.6c5.523,0,10,4.477,10,10
		S220.123,108.768,214.6,108.768z"/><path fill="#de8bae" d="M214.6 131.417h-82.802c-5.523 0-10 4.477-10 10s4.477 10 10 10H214.6c5.523 0 10-4.477 10-10S220.123 131.417 214.6 131.417zM224.541 185.138c.038-.352.059-.709.059-1.072 0-5.523-4.477-10-10-10h-82.802c-5.523 0-10 4.477-10 10s4.477 10 10 10h44.485c12.6-6.029 26.489-9.213 40.867-9.213C219.63 184.852 222.094 184.95 224.541 185.138zM131.798 216.715c-5.523 0-10 4.477-10 10s4.477 10 10 10h.837c3.603-7.092 8.145-13.822 13.64-20H131.798zM214.6 88.768h-82.802c-5.523 0-10 4.477-10 10s4.477 10 10 10H214.6c5.523 0 10-4.477 10-10S220.123 88.768 214.6 88.768zM297.4 151.417h82.802c5.522 0 10-4.477 10-10s-4.478-10-10-10H297.4c-5.522 0-10 4.477-10 10S291.878 151.417 297.4 151.417zM380.202 174.066H297.4c-5.522 0-10 4.477-10 10s4.478 10 10 10h82.802c5.522 0 10-4.477 10-10S385.725 174.066 380.202 174.066zM380.202 236.715c5.522 0 10-4.477 10-10s-4.478-10-10-10H297.4c-2.705 0-5.154 1.078-6.954 2.823 4.427 5.386 8.159 11.152 11.22 17.177H380.202zM320.464 98.113l-11.961 10.656h31l-11.961-10.656C325.525 96.316 322.481 96.316 320.464 98.113zM297.4 88.768c-5.522 0-10 4.477-10 10 0 5.523 4.478 10 10 10h.381c-.237-.6-.382-1.257-.382-1.975V88.768zM350.224 108.768h29.978c5.522 0 10-4.477 10-10s-4.478-10-10-10h-29.596v18.025C350.606 107.512 350.461 108.169 350.224 108.768z"/><path fill="#ff5384" d="M297.4,88.768v18.025c0,0.718,0.145,1.375,0.382,1.975c1.279,3.238,5.584,4.576,8.478,1.998l2.243-1.998
		l11.961-10.656c2.017-1.797,5.061-1.797,7.078,0l11.961,10.656l2.243,1.998c2.894,2.578,7.199,1.24,8.478-1.998
		c0.237-0.6,0.382-1.257,0.382-1.975V88.768v-49.1V34.35c0-2.938-2.382-5.321-5.321-5.321h-42.565c-2.938,0-5.321,2.382-5.321,5.321
		v5.318V88.768z"/><path fill="#636677" d="M150.06,347.005c-2.383-2.387-4.607-4.873-6.683-7.441l-37.254,37.303l14.132,14.152l37.25-37.3
		C154.928,351.625,152.44,349.388,150.06,347.005z"/><path fill="#726b93" d="M311.769 285.813c0-.001 0-.002 0-.002 1.046-16.78-2.32-33.777-10.103-49.096-3.061-6.025-6.794-11.791-11.22-17.177-1.94-2.36-4.002-4.654-6.205-6.859-8.293-8.304-17.853-14.878-28.241-19.549-9.863-4.434-20.472-7.15-31.459-7.992-2.447-.188-4.911-.285-7.391-.285-14.379 0-28.267 3.184-40.867 9.213-9.609 4.598-18.469 10.849-26.222 18.613-1.313 1.314-2.566 2.665-3.785 4.036-5.496 6.178-10.037 12.908-13.64 20-7.783 15.318-11.149 32.316-10.103 49.096 0 .001 0 .002 0 .002.655 10.505 3.037 20.917 7.152 30.774 3.203 7.672 7.461 14.998 12.76 21.77.314.401.612.81.933 1.207 2.076 2.567 4.3 5.054 6.683 7.441 2.38 2.383 4.867 4.62 7.446 6.715 16.833 13.675 37.666 21.111 59.644 21.111.001 0-.001 0 0 0 25.342 0 49.172-9.883 67.091-27.825 2.752-2.756 5.273-5.654 7.616-8.647 5.299-6.773 9.556-14.099 12.76-21.77C308.732 306.729 311.114 296.318 311.769 285.813zM217.15 344.983c-35.919 0-65.142-29.223-65.142-65.142 0-35.919 29.222-65.142 65.142-65.142s65.142 29.223 65.142 65.142C282.292 315.761 253.069 344.983 217.15 344.983zM128.809 399.585l-8.554-8.565-14.132-14.152-7.321-7.332c-1.876-1.878-4.421-2.934-7.076-2.934-2.654 0-5.2 1.056-7.076 2.934l-38.376 38.429-21.638 21.668c-12.165 12.182-12.165 32.001 0 44.181 5.897 5.904 13.738 9.157 22.079 9.157 0 0 0 0 0 0 8.341 0 16.183-3.253 22.08-9.157l54.941-55.016 5.073-5.08C132.708 409.813 132.708 403.489 128.809 399.585z"/><path fill="#8bdec5" d="M282.292,279.842c0-35.919-29.223-65.142-65.142-65.142s-65.142,29.223-65.142,65.142
		c0,35.919,29.222,65.142,65.142,65.142S282.292,315.761,282.292,279.842z M197.003,289.842c-5.523,0-10-4.478-10-10
		c0-16.623,13.523-30.146,30.146-30.146c5.523,0,10,4.478,10,10s-4.477,10-10,10c-5.595,0-10.146,4.552-10.146,10.146
		C207.003,285.364,202.526,289.842,197.003,289.842z"/><path fill="#e8f8f3" d="M207.003,279.842c0-5.595,4.552-10.146,10.146-10.146c5.523,0,10-4.478,10-10s-4.477-10-10-10
		c-16.623,0-30.146,13.523-30.146,30.146c0,5.522,4.477,10,10,10S207.003,285.364,207.003,279.842z"/></svg>