<svg xmlns="http://www.w3.org/2000/svg" id="Layer_1" x="0" y="0" version="1.1" viewBox="0 0 150 150" xml:space="preserve"><path fill="#ea8953" d="M11 11h128v128H11z"/><path fill="#1c75a1" d="M112.5 47.884h-75v55.721h31.435c.663 0 1.25.361 1.619.907A5.359 5.359 0 0 0 75 106.865a5.358 5.358 0 0 0 4.446-2.353c.37-.546.956-.907 1.618-.907H112.5v-55.72z"/><path fill="#ebf0f3" d="M75.003 48.314v49.994H41.512V43.135h28.312a5.19 5.19 0 0 1 4.143 2.071 5.119 5.119 0 0 1 1.036 3.108z"/><path fill="#ebf0f3" d="M108.495 43.135v55.173H75.003V48.314c0-1.17.384-2.248 1.036-3.108a5.19 5.19 0 0 1 4.144-2.071h28.312z"/><path fill="#d5d6db" d="M81.986 54.376h19.519a1.035 1.035 0 100-2.072H81.986a1.035 1.035 0 100 2.072zM101.505 58.747H86.13a1.035 1.035 0 100 2.072h15.375a1.035 1.035 0 100-2.072zM101.505 65.19H81.986a1.035 1.035 0 100 2.072h19.519a1.035 1.035 0 100-2.071zM101.505 71.634H86.13a1.035 1.035 0 100 2.072h15.375a1.035 1.035 0 100-2.072zM101.505 78.077H81.986a1.035 1.035 0 100 2.072h19.519a1.035 1.035 0 100-2.072zM101.505 84.52H86.13a1.035 1.035 0 100 2.072h15.375a1.035 1.035 0 100-2.072zM101.505 90.963H81.986a1.035 1.035 0 100 2.072h19.519a1.035 1.035 0 100-2.072zM68.014 54.376H48.495a1.035 1.035 0 110-2.072h19.519a1.035 1.035 0 110 2.072zM48.495 58.747H63.87a1.035 1.035 0 110 2.072H48.495a1.035 1.035 0 110-2.072zM48.495 65.19h19.519a1.035 1.035 0 110 2.072H48.495a1.035 1.035 0 110-2.071zM48.495 71.634H63.87a1.035 1.035 0 110 2.072H48.495a1.035 1.035 0 110-2.072zM48.495 78.077h19.519a1.035 1.035 0 110 2.072H48.495a1.035 1.035 0 110-2.072zM48.495 84.52H63.87a1.035 1.035 0 110 2.072H48.495a1.035 1.035 0 110-2.072zM48.495 90.963h19.519a1.035 1.035 0 110 2.072H48.495a1.035 1.035 0 110-2.072z"/><path fill="#e1e6e9" d="M76.04 45.206v53.102h-2.073V45.206a5.119 5.119 0 0 1 1.036 3.108c0-1.17.384-2.248 1.036-3.108z"/></svg>