<svg xmlns="http://www.w3.org/2000/svg" viewBox="0 0 48 48"><g data-name="Reading newspaper"><path fill="#6fabe6" d="M37,23.37,24,28,11,23.37a6,6,0,0,1,4.69-4c6.76-1.13,4.19-.9,11.29-.9l5.37.9A6,6,0,0,1,37,23.37Z"/><path fill="#82bcf4" d="M37,23.37,24,28,13.65,24.32l.33-.95a6,6,0,0,1,4.69-4c7.51-1.26,6-1.28,13.66,0A6,6,0,0,1,37,23.37Z"/><polygon fill="#dad7e5" points="40 23 40 45 24 47 24 25 40 23"/><path fill="#edebf2" d="M40,23V43.25l-9.5,1.19a4,4,0,0,1-4.5-4V24.75Z"/><polygon fill="#dad7e5" points="24 25 24 47 8 45 8 23 24 25"/><path fill="#edebf2" d="M24,25V44.75L13.5,43.44a4,4,0,0,1-3.5-4V23.25Z"/><path fill="#f6ccaf" d="M27,16.19c0,1.66.18,2.73-.76,3.79A3,3,0,0,1,21,18V16.19Z"/><path fill="#ffdec7" d="M27,16.19c0,1.66.18,2.73-.76,3.79A3,3,0,0,1,23,17v-.81Z"/><path fill="#919191" d="M20 35c-.1 0-2.29-.28-7.12-.88a1 1 0 0 1 .24-2l7 .87A1 1 0 0 1 20 35zM20 31c-.1 0-2.29-.28-7.12-.88a1 1 0 0 1 .24-2l7 .87A1 1 0 0 1 20 31zM28 35a1 1 0 0 1-.12-2l7-.87a1 1 0 0 1 .24 2C30.29 34.72 28.1 35 28 35zM28 31a1 1 0 0 1-.12-2l7-.87a1 1 0 0 1 .24 2C30.29 30.72 28.1 31 28 31z"/><path fill="#f6ccaf" d="M30,7c0,3.64.52,6.58-2.37,8.77A6,6,0,0,1,18,11V7A6,6,0,0,1,30,7Z"/><path fill="#ffdec7" d="M30,7c0,3.64.52,6.58-2.37,8.77A6,6,0,0,1,20,10c0-3.64-.52-6.58,2.37-8.77A6,6,0,0,1,30,7Z"/><path fill="#a87e6b" d="M30,7V8c-2.37,0-4.72.28-7-2-1.11,2.26-3.27,2-5,2V7A6,6,0,0,1,30,7Z"/><path fill="#be927c" d="M30,7V8c-2.37,0-4.72.28-7-2a3.55,3.55,0,0,1-3,2V7a6,6,0,0,1,5-5.91A6,6,0,0,1,30,7Z"/><path fill="#f6ccaf" d="M40,29h2a1,1,0,0,1,1,1v5a1,1,0,0,1-1,1H40a2,2,0,0,1-2-2V31A2,2,0,0,1,40,29Z" transform="rotate(180 40.5 32.5)"/><path fill="#919191" d="M28 43a1 1 0 0 1-.12-2l8-1a1 1 0 0 1 .24 2C27.57 43.06 28.1 43 28 43zM28 39a1 1 0 0 1-.12-2l7-.87a1 1 0 0 1 .24 2C30.29 38.72 28.1 39 28 39z"/><path fill="#f6ccaf" d="M10,30v5a1,1,0,0,1-1,1H7a2,2,0,0,1-2-2V31a2,2,0,0,1,2-2H9A1,1,0,0,1,10,30Z"/><path fill="#ffdec7" d="M10 30v4H9a2 2 0 0 1-2-2V29H9A1 1 0 0 1 10 30zM38 30v4h1a2 2 0 0 0 2-2V29H39A1 1 0 0 0 38 30z"/><path fill="#919191" d="M20 43c-.1 0 .43.06-8.12-1a1 1 0 0 1 .24-2l8 1A1 1 0 0 1 20 43zM20 39c-.1 0-2.29-.28-7.12-.88a1 1 0 0 1 .24-2l7 .87A1 1 0 0 1 20 39z"/><path d="M20.12 33l-7-.87a1 1 0 0 0-.24 2l7 .87A1 1 0 0 0 20.12 33zM20.12 29l-7-.87a1 1 0 0 0-.24 2l7 .87A1 1 0 0 0 20.12 29zM28 35c.1 0 2.29-.28 7.12-.88a1 1 0 0 0-.24-2l-7 .87A1 1 0 0 0 28 35zM28 31c.1 0 2.29-.28 7.12-.88a1 1 0 0 0-.24-2l-7 .87A1 1 0 0 0 28 31z"/><path d="M41,28c0-6.72.63-6.21-3.35-5.71-1.88-3.94-5.36-3.92-9.65-4.64v-.91c3.53-2.47,3-5.85,3-9.74A7,7,0,0,0,17,7c0,3.93-.52,7.27,3,9.74v.91c-4.29.72-7.77.7-9.65,4.64C6.44,21.8,7,21.21,7,28a3,3,0,0,0-3,3v3a3,3,0,0,0,3,3v8a1,1,0,0,0,.88,1l16,2c.19,0-.82.13,16.24-2A1,1,0,0,0,41,45V37a3,3,0,0,0,3-3V31A3,3,0,0,0,41,28ZM24,2a5,5,0,0,1,5,5c-1.8,0-3.52.07-5.29-1.71A1,1,0,0,0,22.84,5c-1.27.21-.31,2-3.84,2A5,5,0,0,1,24,2Zm-5,9V9a4.88,4.88,0,0,0,4.19-1.52A8.6,8.6,0,0,0,29,9v2a5,5,0,0,1-10,0Zm5,7c2.21,0,2-.68,2,0a2,2,0,0,1-4,0C22,17.32,21.79,18,24,18Zm-3.65,1.62a4,4,0,0,0,7.3,0c4.06.68,6.34.62,7.86,2.93L24,24,12.49,22.55C14,20.2,16.26,20.31,20.35,19.62ZM6,34V31a1,1,0,0,1,1-1H9v5H7A1,1,0,0,1,6,34Zm3,3a2,2,0,0,0,2-2V30a2,2,0,0,0-2-2V24.13l14,1.75v20L9,44.12Zm30,7.12L25,45.87v-20l14-1.75V28a2,2,0,0,0-2,2v5a2,2,0,0,0,2,2ZM42,34a1,1,0,0,1-1,1H39V30h2a1,1,0,0,1,1,1Z"/><path d="M35.88 40l-8 1a1 1 0 0 0 .24 2l8-1A1 1 0 0 0 35.88 40zM28 39c.1 0 2.29-.28 7.12-.88a1 1 0 0 0-.24-2l-7 .87A1 1 0 0 0 28 39zM20.12 41l-8-1a1 1 0 0 0-.24 2l8 1A1 1 0 0 0 20.12 41zM20.12 37l-7-.87a1 1 0 0 0-.24 2l7 .87A1 1 0 0 0 20.12 37z"/></g></svg>