<svg xmlns="http://www.w3.org/2000/svg" viewBox="0 0 64 64"><path d="M54.709,7.027V4.268a1,1,0,0,0-1-1H50.95L48.717,1.034a1,1,0,0,0-1.414,0L45.069,3.268H18.577L16.343,1.034a1,1,0,0,0-1.414,0L12.7,3.268H10.521a1,1,0,0,0-1,1V6.443L6.7,9.26a1,1,0,0,0,0,1.414l2.818,2.817v4.6a1,1,0,0,0,.446.833l2.056,1.366L9.967,21.655a1,1,0,0,0-.446.833V61.042a1,1,0,0,0,1,1H53.709a1,1,0,0,0,1-1V39.9a1,1,0,0,0-.446-.833l-1.847-1.226,1.847-1.227a1,1,0,0,0,.446-.833V12.907l2.233-2.233a1,1,0,0,0,0-1.414ZM19.693,5.8a.975.975,0,0,0,.258-.53H43.7a.974.974,0,0,0,.258.53L46.92,8.765H16.727Zm18.8,17.387c.007.137.031.272.031.41,0,3.972-2.875,7.2-6.409,7.2s-6.408-3.231-6.408-7.2c0-.138.026-.273.032-.41Zm-12.559-2,.261-1.907a4.8,4.8,0,0,1,4.965-4.1q.957.031,1.911,0h0a4.839,4.839,0,0,1,4.963,4.1l.262,1.907Zm9.085,11.036v1.89H29.212v-1.89a7.591,7.591,0,0,0,5.806,0Zm1.586,3.89a5.715,5.715,0,0,1,5.708,5.708h-20.4a5.717,5.717,0,0,1,5.71-5.708Zm.414-1.979V31.056A9.481,9.481,0,0,0,40.523,23.6a10.165,10.165,0,0,0-.1-1.4.945.945,0,0,0,.012-.149l-.418-3.043a6.78,6.78,0,0,0-7.009-5.829c-.595.017-1.188.017-1.784,0a6.786,6.786,0,0,0-7.009,5.829L23.8,22.048a.97.97,0,0,0,.012.161,10.14,10.14,0,0,0-.1,1.386,9.481,9.481,0,0,0,3.506,7.462v3.075a7.715,7.715,0,0,0-7.3,7.687h-2.9V10.765H47.212V41.819h-2.9A7.713,7.713,0,0,0,37.018,34.132ZM8.824,9.967l6.812-6.812,1.936,1.936L10.761,11.9ZM52.709,60.042H11.521V49.317H52.709Zm0-24.794-2.654,1.763a1,1,0,0,0,0,1.666l2.654,1.763v6.877H11.521V23.025l2.863-1.9a1,1,0,0,0,0-1.666l-2.863-1.9V13.971l3.5-3.5V42.819a1,1,0,0,0,1,1H48.212a1,1,0,0,0,1-1V11.057l2.967,2.967a.974.974,0,0,0,.53.258ZM52.886,11.9,46.074,5.091,48.01,3.155l6.811,6.812Z"/><polygon points="21.221 51.949 20.202 55.576 19.162 51.949 17.824 51.949 16.799 55.576 15.792 52.04 15.767 51.949 14.237 51.949 16.043 57.306 16.071 57.391 17.456 57.391 18.467 53.965 19.464 57.391 20.856 57.391 22.698 51.949 21.221 51.949"/><path d="M25.875,51.949H24.5l-2.363,5.442h1.483l.408-1.009h2.235l.408,1.009H28.2l-2.292-5.365Zm-.09,3.242H24.518l.636-1.561Z"/><polygon points="32.236 55.053 29.939 51.999 29.902 51.949 28.647 51.949 28.647 57.391 30.017 57.391 30.017 54.303 32.307 57.341 32.344 57.391 33.599 57.391 33.599 51.949 32.236 51.949 32.236 55.053"/><polygon points="34.2 53.193 35.779 53.193 35.779 57.391 37.201 57.391 37.201 53.193 38.788 53.193 38.788 51.949 34.2 51.949 34.2 53.193"/><polygon points="40.812 55.27 43.311 55.27 43.311 54.048 40.812 54.048 40.812 53.171 43.592 53.171 43.592 51.949 39.39 51.949 39.39 57.391 43.674 57.391 43.674 56.169 40.812 56.169 40.812 55.27"/><path d="M48.944,52.712a2.855,2.855,0,0,0-2.051-.763H44.565v5.442h2.284a2.94,2.94,0,0,0,2.088-.761,2.782,2.782,0,0,0,.007-3.918Zm-2.022,3.442h-.935V53.186h.883a1.42,1.42,0,0,1,1.012.4,1.439,1.439,0,0,1,.421,1.089A1.354,1.354,0,0,1,46.922,56.154Z"/></svg>